<svg width="24" height="24" viewBox="0 0 24 24" fill="none" xmlns="http://www.w3.org/2000/svg">
<rect x="8" y="4" width="8" height="5" stroke="#8C969D" stroke-width="2" stroke-linecap="round" stroke-linejoin="round"/>
<path d="M7.14935 8.47427L8 9L7.14935 8.47427ZM9 13.2361H10C10 13.0808 9.96386 12.9277 9.89443 12.7889L9 13.2361ZM15 13.2361L14.1056 12.7889C14.0361 12.9277 14 13.0808 14 13.2361H15ZM16.8944 9.44721L17.7889 9.89443V9.89443L16.8944 9.44721ZM16.8507 8.47427L16 9L16 9L16.8507 8.47427ZM13 14H14C14 13.4477 13.5523 13 13 13V14ZM11 14V13C10.4477 13 10 13.4477 10 14H11ZM11 19H10C10 19.5523 10.4477 20 11 20V19ZM13 19V20C13.5523 20 14 19.5523 14 19H13ZM13.382 12V13C13.7607 13 14.107 12.786 14.2764 12.4472L13.382 12ZM14.382 10L15.2764 10.4472C15.4314 10.1372 15.4148 9.76909 15.2326 9.47427C15.0504 9.17945 14.7285 9 14.382 9V10ZM9.61804 10V9C9.27146 9 8.94959 9.17945 8.76738 9.47427C8.58518 9.76909 8.56861 10.1372 8.72361 10.4472L9.61804 10ZM10.618 12L9.72361 12.4472C9.893 12.786 10.2393 13 10.618 13V12ZM8 9V7C7.30685 7 6.66311 7.3589 6.2987 7.94854L8 9ZM8 9V9L6.2987 7.94854C5.93429 8.53817 5.90116 9.27445 6.21115 9.89443L8 9ZM9.89443 12.7889L8 9L6.21115 9.89443L8.10557 13.6833L9.89443 12.7889ZM10 20V13.2361H8V20H10ZM10 20H8C8 21.1046 8.89543 22 10 22V20ZM14 20H10V22H14V20ZM14 20V22C15.1046 22 16 21.1046 16 20H14ZM14 13.2361V20H16V13.2361H14ZM16 9L14.1056 12.7889L15.8944 13.6833L17.7889 9.89443L16 9ZM16 9L16 9L17.7889 9.89443C18.0988 9.27445 18.0657 8.53817 17.7013 7.94854L16 9ZM16 9L16 9L17.7013 7.94854C17.3369 7.3589 16.6932 7 16 7V9ZM8 9H16V7H8V9ZM13 13H11V15H13V13ZM10 14V19H12V14H10ZM11 20H13V18H11V20ZM14 19V14H12V19H14ZM14.2764 12.4472L15.2764 10.4472L13.4875 9.55279L12.4875 11.5528L14.2764 12.4472ZM14.382 9H9.61804V11H14.382V9ZM8.72361 10.4472L9.72361 12.4472L11.5125 11.5528L10.5125 9.55279L8.72361 10.4472ZM10.618 13H13.382V11H10.618V13Z" fill="#8C969D"/>
</svg>
